<?xml version="1.0" encoding="utf-8"?>
<!-- Generator: Adobe Illustrator 24.0.2, SVG Export Plug-In . SVG Version: 6.00 Build 0)  -->
<svg version="1.1" id="Capa_1" xmlns="http://www.w3.org/2000/svg" xmlns:xlink="http://www.w3.org/1999/xlink" x="0px" y="0px"
	 viewBox="0 0 512.2 512.2" style="enable-background:new 0 0 512.2 512.2;" xml:space="preserve">
<style type="text/css">
	.st0{fill:#FFFFFF;}
</style>
<path class="st0" d="M469.2,277.3H352.3V10.7c0-5.9-4.8-10.7-10.7-10.7H171c-5.9,0-10.7,4.8-10.7,10.7v266.7H43
	c-5.9,0-10.7,4.8-10.7,10.7c0,2.8,1.1,5.5,3.1,7.5L248.2,509c2,2,4.7,3.1,7.6,3.1l0,0c2.8,0,5.5-1.1,7.6-3.1l213.3-213.5
	c4.2-4.2,4.2-10.9,0-15.1C474.7,278.5,472,277.3,469.2,277.3z"/>
<path d="M255.7,512L255.7,512c-2.8,0-5.6-1.1-7.6-3.1L35.4,295.4c-4.1-4.2-4-11,0.2-15.1c2-1.9,4.6-3,7.4-3h117.3V10.7
	C160.3,4.8,165.1,0,171,0h170.7c5.9,0,10.7,4.8,10.7,10.7v266.7h116.9c5.9,0,10.7,4.8,10.7,10.6c0,2.8-1.1,5.6-3.1,7.6L263.4,509.1
	C261.3,511,258.6,512.1,255.7,512z M68.7,298.7l187.1,187.7l187.7-187.7H341.6c-5.9,0-10.7-4.8-10.7-10.7V21.3H181.6V288
	c0,5.9-4.8,10.7-10.7,10.7H68.7z"/>
</svg>
