<?xml version="1.0" encoding="utf-8"?>
<!-- Generator: Adobe Illustrator 24.0.2, SVG Export Plug-In . SVG Version: 6.00 Build 0)  -->
<svg version="1.1" id="Layer_1" xmlns="http://www.w3.org/2000/svg" xmlns:xlink="http://www.w3.org/1999/xlink" x="0px" y="0px"
	 viewBox="0 0 512 512" style="enable-background:new 0 0 512 512;" xml:space="preserve">
<style type="text/css">
	.st0{fill:#99FFBB;}
	.st1{fill:#83FAAF;}
	.st2{fill:#F9F9F9;}
	.st3{fill:#FCFCFC;}
	.st4{display:none;}
	.st5{display:inline;fill:#59C9FF;}
	.st6{display:inline;fill:#FFF35D;}
	.st7{display:inline;fill:#FFDC4C;}
	.st8{display:inline;fill:#4BA9EF;}
	.st9{display:inline;fill:#F7F7F7;}
	.st10{display:inline;fill:#939393;}
	.st11{display:inline;fill:#B2B2B2;}
	.st12{display:inline;fill:#E8E8E8;}
</style>
<g id="Capa_1">
	<path class="st0" d="M446,512H66c-8.3,0-15-6.7-15-15V15c0-8.3,6.7-15,15-15h230c4,0,7.8,1.6,10.6,4.4l150,150
		c2.8,2.8,4.4,6.6,4.4,10.6v332C461,505.3,454.3,512,446,512z"/>
	<path class="st1" d="M456.6,154.4l-150-150C303.8,1.6,300,0,296,0h-40v512h190c8.3,0,15-6.7,15-15V165
		C461,161,459.4,157.2,456.6,154.4z"/>
	<path class="st2" d="M306,241h-35v-35c0-8.3-6.7-15-15-15s-15,6.7-15,15v35h-35c-8.3,0-15,6.7-15,15c0,8.3,6.7,15,15,15h35v35
		c0,8.3,6.7,15,15,15c8.3,0,15-6.7,15-15v-35h35c8.3,0,15-6.7,15-15S314.3,241,306,241z"/>
	<path class="st3" d="M306,241h-35v-35c0-8.3-6.7-15-15-15v130c8.3,0,15-6.7,15-15v-35h35c8.3,0,15-6.7,15-15S314.3,241,306,241z"/>
</g>
<g id="Layer_2_1_" class="st4">
	<rect x="-197.4" y="72.2" class="st5" width="57.1" height="57.1"/>
	<rect x="-197.4" y="186.4" class="st6" width="57.1" height="57.1"/>
	<rect x="-197.4" y="243.5" class="st7" width="57.1" height="57.1"/>
	<rect x="-197.4" y="129.3" class="st8" width="57.1" height="57.1"/>
	<rect x="-135.3" y="72.2" class="st9" width="57.1" height="57.1"/>
	<rect x="-135.3" y="186.4" class="st10" width="57.1" height="57.1"/>
	<rect x="-135.3" y="243.5" class="st11" width="57.1" height="57.1"/>
	<rect x="-135.3" y="129.3" class="st12" width="57.1" height="57.1"/>
</g>
</svg>
